# xmcd CD database file
#
# Track frame offsets:
#	150
#	16642
#	40995
#	66857
#	88772
#	92717
#	117895
#	152320
#	179620
#	200015
#	219582
#	234747
#	283277
#	297540
#
# Disc length: 4354 seconds
#
# Revision: 0
# Processed by: cddbd v1.5.1PL0 Copyright (c) Steve Scherf et al.
# Submitted via: CDex 1.51
#
DISCID=ce11000e
DTITLE=Don Grusin - The Hang
DYEAR=2004
DGENRE=Jazz
TTITLE0=Let's Not Talk About It
TTITLE1=Makossa Beat
TTITLE2=She Could Be Mine
TTITLE3=Wait for Me
TTITLE4=Dama de la Ciudad (Introductory Song to el Floridita)
TTITLE5=Floridita
TTITLE6=Number 8
TTITLE7=Woman
TTITLE8=Chaser
TTITLE9=Fresh Air
TTITLE10=Catwalk
TTITLE11=Road Town
TTITLE12=Oo-Whee the Carnival
TTITLE13=She Feels Good
EXTD=YEAR: 2004
EXTT0=
EXTT1=
EXTT2=
EXTT3=
EXTT4=
EXTT5=
EXTT6=
EXTT7=
EXTT8=
EXTT9=
EXTT10=
EXTT11=
EXTT12=
EXTT13=
PLAYORDER=
